<svg id="b0929210-3fb7-4254-967f-51ee4691bf12" data-name="Calque 3" xmlns="http://www.w3.org/2000/svg" viewBox="0 0 81.01 90.78"><defs><style>.e880ff3f-535b-4cea-b133-fd22ba50229e{fill:#e37b0c;}</style></defs><path class="e880ff3f-535b-4cea-b133-fd22ba50229e" d="M79.83,56.82a63,63,0,0,0-5.54-16.71,85.07,85.07,0,0,0-5-7.89c-.55-.86-.7-1.65.28-2.3,1.53-1,3.12-1.91,4.56-3,.48-.37.57-1.24.84-1.88-.57,0-1.25-.28-1.7-.06-1.89.91-3.67,2-5.56,2.91a2.13,2.13,0,0,1-1.88-.16C64.47,26.58,63.33,25.17,62,24c-2.68-2.22-5.44-4.34-8.18-6.48a51.08,51.08,0,0,0-5.06-3.77c-2.93-1.72-6-3.22-9-4.79a52.68,52.68,0,0,0-6.33-3.17C28.09,3.94,22.88,1.86,17.25,1A67,67,0,0,0,9.92,0C8.67,0,7.42,0,6.39,0,8,3.13,9.59,6.24,11.22,9.32a6.83,6.83,0,0,1,.17,5.87c-.52,1.38-1.12,2.73-1.64,4C19.6,27.4,29.58,35.33,35.45,47.1a26.13,26.13,0,0,1-2.91,2.59c-2.38,1.54-4.9,2.87-7.29,4.4-3.52,2.23-7,4.56-10.46,6.85-1.5,1-3,2-4.51,3-2.19,1.48-4.32,3-6.55,4.44A8.57,8.57,0,0,1,1.2,69a3.09,3.09,0,0,0-1.16,3,4.77,4.77,0,0,1,.63-.48c2.27-1.44,4.71-2.62,7-4,2.54-1.52,5-3.15,7.53-4.71,1-.61,2-1.18,3-1.76a13.62,13.62,0,0,0,.31,3.37c.48,1.32-.06,1.68-1.15,2-2.6.83-3.41,1.88-3.54,4.08a56.56,56.56,0,0,1-.63,5.64c-.07.46-.7.82-1.07,1.23L11.6,77c-.19-1.62-.38-3.23-.57-4.8-1.5-.52-2.24-.15-2.56,1.42A11.57,11.57,0,0,1,7,77c-1.39,2.38-2,3.25-.4,5.2a2.51,2.51,0,0,1,.31.65l-1.46,2c2.21.19,2.22,1.48,2.29,2.84a4.89,4.89,0,0,0,.73,1.56,10.65,10.65,0,0,0,.72-1.63,13.33,13.33,0,0,0,.24-1.9l.45,0c.09.47.15.94.27,1.4a14.32,14.32,0,0,0,.67,2.17c1.45-.26.69-1.44.82-2.28.27-1.8,1.66-3.25,1.54-5.2-.05-.77.49-1.56.59-2.36a8.31,8.31,0,0,0-.22-2c.81,0,1.37-.09,1.93-.1,2.6,0,2.82.22,2.42,2.77q-.53,3.3-1,6.62c-.26,1.88.2,2.32,2.24,2.35,1.73,0,3.46.06,5.18.23,1.12.11,1.55-.25,1.54-1.36,0-2.86,0-5.73,0-8.59,0-1.31.67-2,1.82-1.82,1.41.25,1.82-.28,1.91-1.53A5.3,5.3,0,0,1,30,74.71c.5.21,1.17.29,1.45.67a1.81,1.81,0,0,1,0,1.48C31,78,30.37,79,29.83,80.11c-1,2.06-.77,2.47,1.43,2.44,1.09,0,1.69.23,1.33,1.58A15.66,15.66,0,0,0,32.54,87c-.08,1.18.48,1.62,1.59,1.62,2.13,0,4.26,0,6.38,0,1,0,1.35-.48,1.24-1.35a34.65,34.65,0,0,1-.53-3.47c0-.57.56-1.67.74-1.64,1.67.24,3.37-1.75,4.91-.06a3.83,3.83,0,0,1,.66,2.18c.11,1.23,0,2.48.07,3.7a4.4,4.4,0,0,0,.74,1.42,4.17,4.17,0,0,0,.77-1.3c.24-1.32.27-2.67.54-4,.06-.32.69-.69,1.08-.72s.72.51.79.86c.25,1.18.28,2.41.56,3.57.13.53.66,1,1,1.43.37-.49,1-1,1.06-1.49a12.6,12.6,0,0,0,0-3.68,20.53,20.53,0,0,0-1.2-3.31c-.24-.65-.47-1.31-.7-2l.77-.41c.65.88,1.29,1.77,2.12,2.92.2-.23.81-.63.79-1-.08-1.36-.4-2.61-1.93-3.22-2.19-.88-2.4-1.65-1.9-3.92.13-.64-.41-2-.85-2.07a4.63,4.63,0,0,0-3.15.33c-.47.29-.53,1.79-.29,2.59.31,1-.1,1.36-.85,1.76-.51.27-.9.77-1.42,1-.78.36-1.06,2-2.22,1.15s.19-1.9.3-2.88c0,0,.06-.09.1-.13,2.36-3.14,1-7-2.83-8a4.53,4.53,0,0,1-1.21-.66c.66-1.88,1.23-3.49,1.87-5.29,13.88,5.36,22.18,16.49,29,29.79a25.28,25.28,0,0,0,2.1-3.28c1.33-3,1.6-3.32,4.9-3,1.09.13,1.4-.28,1.57-1.17.51-2.64,1.18-5.25,1.53-7.9A59,59,0,0,0,79.83,56.82ZM35.26,60.17a3.68,3.68,0,0,0-.66,4.17c.56,1.21.21,1.61-.85,2-1.52.48-3.31.61-3.65,2.87-.4-.3-.75-.42-.79-.61-.46-2-2-2.38-3.66-2.61-1.25-.18-1.94-.49-1.34-2.06.87-2.31.33-3.06-3-4.62A12,12,0,0,1,22.74,58c3.05-1.94,6.14-3.83,9.2-5.76,1.07-.68,2.07-1.47,3.18-2.08.38-.2,1.37-.12,1.44.07,1.06,2.86,2,5.76,3.08,8.91C37.79,59.1,36.43,58.76,35.26,60.17Z"/></svg>