<svg id="b4dd6f02-e4bf-40da-b09f-0422885d0b97" data-name="Calque 3" xmlns="http://www.w3.org/2000/svg" viewBox="0 0 97.46 127.42"><defs><style>.b0f30ee0-4f12-461a-8a6d-4be55e2c50df{fill:#e37b0c;}.a488a563-58d8-485c-bfe4-321e4c9da875{fill:#fffefd;}</style></defs><rect class="b0f30ee0-4f12-461a-8a6d-4be55e2c50df" x="0.04" y="111.97" width="97.43" height="15.45" rx="0.9"/><path class="a488a563-58d8-485c-bfe4-321e4c9da875" d="M20,119.69c0-1.69,0-3.38,0-5.07,0-.32.08-.41.4-.4h8a4.35,4.35,0,0,1,2.15.52,2.73,2.73,0,0,1,.81,4.25c-.36.43-.36.43.07.76a2.85,2.85,0,0,1,.27,4.16,4,4,0,0,1-3.07,1.2c-2.77,0-5.54,0-8.31,0-.29,0-.27-.15-.27-.34Zm5.86.9v0c-.93,0-1.86,0-2.79,0-.25,0-.33.08-.32.32,0,.57,0,1.15,0,1.72,0,.24.07.32.31.32h5.51c.75,0,1.1-.42,1.09-1.23a1,1,0,0,0-1.13-1.1Zm0-4.14v0H23.13c-.19,0-.38,0-.37.28q0,.8,0,1.59c0,.18.09.25.27.25,1.77,0,3.55,0,5.32,0,.59,0,.94-.52.91-1.19s-.31-.86-1-.86C27.47,116.44,26.65,116.45,25.84,116.45Z"/><path class="a488a563-58d8-485c-bfe4-321e4c9da875" d="M58.8,125.08H53.68c-.24,0-.33-.06-.33-.31V114.59c0-.25.08-.35.34-.35H64c.24,0,.37.05.36.34q0,.75,0,1.5c0,.26-.09.34-.32.34-2.31,0-4.62,0-6.93,0-1,0-1,0-1,.9,0,1.2,0,1.2,1.18,1.2h5.56c.38,0,.54.09.5.5a7,7,0,0,0,0,1.12c0,.36-.11.45-.46.45-2.08,0-4.16,0-6.24,0-.44,0-.59.11-.55.55a10.59,10.59,0,0,1,0,1.38c0,.35.08.46.45.46,2.42,0,4.85,0,7.27,0,.41,0,.53.11.5.51a8.55,8.55,0,0,0,0,1.24c0,.37-.11.46-.46.46-1.69,0-3.39,0-5.08,0Z"/><path class="a488a563-58d8-485c-bfe4-321e4c9da875" d="M74.14,114.22c1,0,2.07,0,3.1,0,.28,0,.39.08.38.37,0,.48,0,1,0,1.46s-.13.43-.45.43c-1.74,0-3.48,0-5.21,0-2.39-.1-3.24,1.56-3.19,3.44a3.26,3.26,0,0,0,1,2.34,2.41,2.41,0,0,0,1.74.71c1.86,0,3.73,0,5.59,0,.41,0,.51.13.48.5s0,.95,0,1.42c0,.2,0,.33-.27.33-2.2,0-4.4.12-6.58-.09a5.24,5.24,0,0,1-4.69-4.83A5.46,5.46,0,0,1,67.35,116a5.13,5.13,0,0,1,3.91-1.77c1,0,1.92,0,2.88,0Z"/><path class="a488a563-58d8-485c-bfe4-321e4c9da875" d="M47.49,114.22c1,0,2.07,0,3.1,0,.26,0,.36.06.35.33,0,.53,0,1.06,0,1.59,0,.24-.08.32-.33.32-1.8,0-3.61,0-5.42,0-2.22-.08-3.59,1.81-3,4.11a3.09,3.09,0,0,0,1.39,2,2.34,2.34,0,0,0,1.22.35c1.89,0,3.79,0,5.68,0,.37,0,.47.13.45.47a12.71,12.71,0,0,0,0,1.38c0,.28-.06.41-.38.4-2,0-4,0-5.94,0a5.27,5.27,0,0,1-5-3.61,5.58,5.58,0,0,1,1.67-6.16,5.38,5.38,0,0,1,3.37-1.12c.93,0,1.86,0,2.79,0Z"/><path class="a488a563-58d8-485c-bfe4-321e4c9da875" d="M34.52,119.73v-5.07c0-.25,0-.4.35-.39.68,0,1.35,0,2,0,.27,0,.35.09.34.35q0,5.07,0,10.14c0,.26-.08.35-.35.34-.65,0-1.31,0-2,0-.32,0-.38-.1-.38-.4,0-1.66,0-3.32,0-5Z"/><path class="b0f30ee0-4f12-461a-8a6d-4be55e2c50df" d="M88.54,56.82A62.66,62.66,0,0,0,83,40.11a83,83,0,0,0-5-7.89c-.55-.86-.7-1.65.28-2.3,1.53-1,3.12-1.91,4.56-3,.48-.37.57-1.24.84-1.88-.57,0-1.25-.28-1.7-.06-1.88.91-3.67,2-5.56,2.91a2.11,2.11,0,0,1-1.87-.16c-1.37-1.13-2.5-2.54-3.87-3.67C68,21.82,65.24,19.7,62.5,17.56a51.08,51.08,0,0,0-5.06-3.77c-2.93-1.72-6-3.22-9-4.79a52.55,52.55,0,0,0-6.32-3.17C36.8,3.94,31.59,1.86,26,1A67.54,67.54,0,0,0,18.63,0C17.39,0,16.14,0,15.11,0c1.61,3.11,3.19,6.22,4.82,9.3a6.86,6.86,0,0,1,.18,5.87c-.52,1.38-1.13,2.73-1.64,4C28.31,27.4,38.29,35.33,44.16,47.1a26.09,26.09,0,0,1-2.9,2.59c-2.39,1.54-4.9,2.87-7.3,4.4-3.52,2.23-7,4.56-10.46,6.85-1.5,1-3,2-4.51,3-2.18,1.48-4.31,3-6.55,4.44A8.5,8.5,0,0,1,9.92,69a3,3,0,0,0-1.16,3,4.77,4.77,0,0,1,.63-.48c2.27-1.44,4.7-2.62,7-4,2.55-1.52,5-3.15,7.53-4.71,1-.61,2-1.18,3-1.76a14.11,14.11,0,0,0,.31,3.37c.48,1.32-.06,1.68-1.15,2-2.6.83-3.4,1.88-3.54,4.08-.12,1.88-.32,3.77-.62,5.64-.08.46-.7.82-1.08,1.23L20.31,77c-.19-1.62-.38-3.23-.56-4.8-1.51-.52-2.24-.15-2.57,1.42A11.31,11.31,0,0,1,15.68,77c-1.39,2.38-2,3.25-.39,5.2a2.8,2.8,0,0,1,.3.65l-1.45,2c2.2.19,2.21,1.48,2.28,2.84a4.72,4.72,0,0,0,.74,1.56,13,13,0,0,0,.72-1.63,13.32,13.32,0,0,0,.23-1.9l.45,0c.09.47.15.94.27,1.4a14.32,14.32,0,0,0,.67,2.17c1.45-.26.7-1.44.82-2.28.27-1.8,1.66-3.25,1.54-5.2,0-.77.5-1.56.59-2.36a8.31,8.31,0,0,0-.22-2c.82,0,1.37-.09,1.93-.1,2.6,0,2.82.22,2.42,2.77-.34,2.2-.68,4.41-1,6.62-.26,1.88.2,2.32,2.23,2.35,1.73,0,3.47.06,5.19.23,1.12.11,1.54-.25,1.53-1.36,0-2.86,0-5.73,0-8.59,0-1.31.67-2,1.82-1.82,1.41.25,1.82-.28,1.91-1.53a5.73,5.73,0,0,1,.47-1.31c.5.21,1.17.29,1.45.67a1.77,1.77,0,0,1,0,1.48C39.73,78,39.08,79,38.54,80.11c-1,2.06-.77,2.47,1.43,2.44,1.09,0,1.69.23,1.33,1.58a15.66,15.66,0,0,0,0,2.83c-.07,1.18.49,1.62,1.59,1.62,2.13,0,4.26,0,6.39,0,1,0,1.34-.48,1.23-1.35a34.65,34.65,0,0,1-.53-3.47c0-.57.57-1.67.75-1.64,1.66.24,3.36-1.75,4.91-.06a4,4,0,0,1,.66,2.18c.1,1.23,0,2.48.07,3.7,0,.49.48,1,.74,1.42a4.33,4.33,0,0,0,.76-1.3c.24-1.32.27-2.67.54-4,.06-.32.69-.69,1.09-.72.25,0,.71.51.78.86.25,1.18.28,2.41.57,3.57.12.53.65,1,1,1.43.37-.49,1-1,1.06-1.49a12.6,12.6,0,0,0,0-3.68,19.62,19.62,0,0,0-1.2-3.31c-.24-.65-.47-1.31-.7-2l.78-.41,2.12,2.92c.19-.23.81-.63.79-1-.09-1.36-.41-2.61-1.93-3.22-2.19-.88-2.4-1.65-1.91-3.92.14-.64-.41-2-.85-2.07a4.64,4.64,0,0,0-3.15.33c-.47.29-.53,1.79-.29,2.59.31,1-.09,1.36-.85,1.76-.5.27-.9.77-1.42,1-.77.36-1.06,2-2.22,1.15s.19-1.9.3-2.88c0,0,.07-.09.1-.13,2.37-3.14,1-7-2.82-8a4.63,4.63,0,0,1-1.22-.66C49,64.4,49.58,62.79,50.22,61c13.88,5.36,22.18,16.49,29,29.79A26.59,26.59,0,0,0,81.3,87.5c1.32-3,1.59-3.32,4.89-3,1.1.13,1.41-.28,1.58-1.17.51-2.64,1.17-5.25,1.53-7.9A59.35,59.35,0,0,0,88.54,56.82ZM44,60.17a3.7,3.7,0,0,0-.65,4.17c.55,1.21.2,1.61-.86,2-1.52.48-3.31.61-3.65,2.87-.4-.3-.75-.42-.79-.61-.46-2-2-2.38-3.66-2.61-1.25-.18-1.94-.49-1.34-2.06.88-2.31.33-3.06-3-4.62A12,12,0,0,1,31.45,58c3.06-1.94,6.14-3.83,9.2-5.76,1.07-.68,2.07-1.47,3.18-2.08.38-.2,1.37-.12,1.44.07,1.06,2.86,2,5.76,3.08,8.91C46.5,59.1,45.14,58.76,44,60.17Z"/><path class="b0f30ee0-4f12-461a-8a6d-4be55e2c50df" d="M0,96.33H3l4.24,9.22,4.25-9.22h2.93V110.1H11.52v-7.82L7.88,110.1H6.5l-3.62-7.82v7.82H0Z"/><path class="b0f30ee0-4f12-461a-8a6d-4be55e2c50df" d="M17.88,108.81a5.86,5.86,0,0,1-1.54-4.27V96.33h3v8.25a3,3,0,0,0,.82,2.29,3.18,3.18,0,0,0,2.27.79,3.1,3.1,0,0,0,2.23-.79,3,3,0,0,0,.82-2.29V96.33h3v8.21A5.93,5.93,0,0,1,27,108.81a6,6,0,0,1-4.53,1.58A6.07,6.07,0,0,1,17.88,108.81Z"/><path class="b0f30ee0-4f12-461a-8a6d-4be55e2c50df" d="M33.73,98.83h-4v-2.5h11v2.5h-4V110.1h-3Z"/><path class="b0f30ee0-4f12-461a-8a6d-4be55e2c50df" d="M43.5,108.81A5.86,5.86,0,0,1,42,104.54V96.33h3v8.25a3,3,0,0,0,.83,2.29,3.17,3.17,0,0,0,2.26.79,3.12,3.12,0,0,0,2.24-.79,3.07,3.07,0,0,0,.82-2.29V96.33h3v8.21a5.93,5.93,0,0,1-1.52,4.27A6,6,0,0,1,48,110.39,6.07,6.07,0,0,1,43.5,108.81Z"/><path class="b0f30ee0-4f12-461a-8a6d-4be55e2c50df" d="M56.06,96.33h9.55v2.5H59.05V102h4.82v2.41H59.05v3.17h6.56v2.5H56.06Z"/><path class="b0f30ee0-4f12-461a-8a6d-4be55e2c50df" d="M67.06,96.33h3V107.6h6.3v2.5h-9.3Z"/><path class="b0f30ee0-4f12-461a-8a6d-4be55e2c50df" d="M77.64,96.33h3V107.6h6.3v2.5H77.64Z"/><path class="b0f30ee0-4f12-461a-8a6d-4be55e2c50df" d="M87.92,96.33h9.54v2.5H90.91V102h4.82v2.41H90.91v3.17h6.55v2.5H87.92Z"/></svg>